<svg xmlns="http://www.w3.org/2000/svg" viewBox="0 0 64 64">
  <path d="M22 6c-2 3 2 4 0 7s2 4 0 7" fill="none" stroke="#c084fc" stroke-width="3" stroke-linecap="round"/>
  <path d="M32 6c-2 3 2 4 0 7s2 4 0 7" fill="none" stroke="#c084fc" stroke-width="3" stroke-linecap="round"/>
  <path d="M42 6c-2 3 2 4 0 7s2 4 0 7" fill="none" stroke="#c084fc" stroke-width="3" stroke-linecap="round"/>
  <path d="M44 28h4a7 7 0 0 1 0 14h-4" fill="none" stroke="#7c3aed" stroke-width="4.5"/>
  <path d="M10 24h34v20a10 10 0 0 1-10 10H20a10 10 0 0 1-10-10V24z" fill="#7c3aed"/>
  <rect x="8" y="50" width="38" height="4.5" rx="2.25" fill="#7c3aed"/>
</svg>
